<?xml version="1.0" encoding="UTF-8" standalone="no"?>
<!-- Generator: Adobe Illustrator 24.1.3, SVG Export Plug-In . SVG Version: 6.00 Build 0)  -->

<svg
   version="1.1"
   id="Layer_1"
   x="0px"
   y="0px"
   viewBox="0 0 345.9976501 111.362381"
   style="enable-background:new 0 0 345.9976501 111.362381;"
   xml:space="preserve"
   sodipodi:docname="logo-horizontal-rke2.svg"
   inkscape:version="1.2.2 (732a01da63, 2022-12-09, custom)"
   xmlns:inkscape="http://www.inkscape.org/namespaces/inkscape"
   xmlns:sodipodi="http://sodipodi.sourceforge.net/DTD/sodipodi-0.dtd"
   xmlns="http://www.w3.org/2000/svg"
   xmlns:svg="http://www.w3.org/2000/svg"><defs
   id="defs181" /><sodipodi:namedview
   id="namedview179"
   pagecolor="#ffffff"
   bordercolor="#000000"
   borderopacity="0.25"
   inkscape:showpageshadow="2"
   inkscape:pageopacity="0.0"
   inkscape:pagecheckerboard="0"
   inkscape:deskcolor="#d1d1d1"
   showgrid="false"
   inkscape:zoom="8.0000543"
   inkscape:cx="172.99883"
   inkscape:cy="55.812121"
   inkscape:window-width="3374"
   inkscape:window-height="1376"
   inkscape:window-x="66"
   inkscape:window-y="27"
   inkscape:window-maximized="1"
   inkscape:current-layer="g176" />
<style
   type="text/css"
   id="style148">
	.st0{fill:#384745;}
	.st1{fill:#2E68E9;}
</style>
<g
   id="g176">
	<g
   id="g170">
		<g
   id="g156">
			<path
   class="st0"
   d="M163.8198547,30.3139076h20.802948c9.8777313,0,16.5375977,4.7890587,16.5375977,14.0675583     c0,7.5587273-5.1629791,12.1236801-10.1773682,13.6948624c1.4968872,1.2715607,2.6198578,2.9925537,3.5175018,4.7890587     c2.0949097,4.2653351,3.5162811,8.9788818,7.931427,8.9788818c1.1229706,0,2.0206146-0.3739166,2.0206146-0.3739166     l-0.9731598,8.9045792c0,0-2.6929321,0.6735382-5.0131683,0.6735382c-5.9863281,0-9.4283142-2.3202362-12.9458008-10.3271713     c-1.4956818-3.5905762-3.5917969-9.8777428-6.3602448-9.8777428h-2.8439636V80.823143h-12.4963837V30.3139076z      M176.3162384,39.3683014v12.4208641H180.8069c3.5917816,0,7.781601-1.1217537,7.781601-6.5088348     c0-4.4151459-2.8427429-5.9120293-6.2859344-5.9120293H176.3162384z"
   id="path150" />
			<path
   class="st0"
   d="M209.6910706,30.3139076h12.4963684v14.143074c0,1.5711823-0.2241058,3.8901978-0.3739166,5.6124077     h0.2996216c0.823349-1.2715607,1.8708038-3.2178764,3.1423645-4.7147636l12.3477936-15.0407181h13.4683075     l-16.4620819,19.8297768l17.3609467,30.6794586H237.603302l-11.6742554-21.1756325l-3.7416077,4.5649529V80.823143h-12.4963684     V30.3139076z"
   id="path152" />
			<path
   class="st0"
   d="M255.9374084,30.3139267h33.4479065v9.278492h-20.9515381v10.8508911h17.5850525v9.278492h-17.5850525     V71.544632h21.700592v9.2784958h-34.1969604V30.3139267z"
   id="path154" />
		</g>
		<g
   id="g168">
			<circle
   class="st1"
   cx="34.9080582"
   cy="76.3942108"
   r="7"
   id="circle158" />
			<path
   class="st1"
   d="M71.4586182,58.6818237c-0.2091827,0-0.4169922-0.0108109-0.6230927-0.0293961     c1.8034897,3.8991776,2.958931,8.1568985,3.3061981,12.6399918h14.9655762     c2.133667-3.7630539,5.6189728-6.6606827,9.7935028-8.0290222v-4.5832825h-27.413475     C71.4779282,58.6801567,71.4681854,58.6818237,71.4586182,58.6818237z"
   id="path160" />
			<path
   class="st1"
   d="M42.1071548,27.7440796v9.6464043c8.2443085,1.1124229,15.6368637,4.9381104,21.2491684,10.549305     l-4.8880386-20.1957092H42.1071548z"
   id="path162" />
			<circle
   class="st1"
   cx="104.3382797"
   cy="79.8942108"
   r="3.5"
   id="circle164" />
			<path
   class="st1"
   d="M121.5868912,0H14.3923826C6.4765382,0,0,6.4766235,0,14.3924685v82.5774384     c0,7.9158478,6.4765382,14.3924713,14.3923826,14.3924713h107.1945114c7.9158401,0,14.3923874-6.4766235,14.3923874-14.3924713     V14.3924685C135.9792786,6.4766235,129.5027313,0,121.5868912,0z M34.9080582,97.3942108     c-11.5793953,0-21.0000019-9.4205627-21.0000019-21S23.3286629,55.394207,34.9080582,55.394207s21,9.4205666,21,21.0000038     S46.4874496,97.3942108,34.9080582,97.3942108z M104.3382797,97.3942108     c-7.7661362,0-14.3631592-5.0865784-16.6441422-12.1017914h-20.436203c-3.8629875,0-6.9952164-3.1291504-7-6.9917984     l-0.0047836-4.1080551c0-12.7650871-10.3783226-23.1434097-23.1348648-23.1434097H25.6086178c-3.8657227,0-7-3.133934-7-7     s3.1342773-7,7-7h2.4985352v-9.3050766h-2.4985352c-3.8657227,0-7-3.1339359-7-7s3.1342773-7,7-7h38.3673859     c3.2313499,0,6.0429649,2.2121096,6.8038063,5.3532219l6.192337,25.5828133h26.4150848     c5.245903,0,9.5135727,4.2676773,9.5135727,9.5135727v10.4468918c5.3286133,3.0031128,8.9374771,8.7133026,8.9374771,15.2536316     C121.8382797,89.5437317,113.9878922,97.3942108,104.3382797,97.3942108z"
   id="path166" />
		</g>
	</g>
	<g
   id="g174"
   transform="translate(2)">
		<path
   class="st0"
   d="m 331.99765,80.648811 h -37.30078 v -8.855293 l 12.55078,-12.295223 c 3.58594,-3.632942 5.92969,-6.113556 7.03125,-7.441849 1.10156,-1.328293 1.86914,-2.469265 2.30273,-3.422909 0.4336,-0.953647 0.6504,-1.952705 0.6504,-2.997177 0,-1.294231 -0.4336,-2.315998 -1.30079,-3.065292 -0.86718,-0.749291 -2.08593,-1.12394 -3.65625,-1.12394 -1.61718,0 -3.25195,0.448441 -4.90429,1.345326 -1.65235,0.896881 -3.52149,2.219497 -5.60742,3.967849 l -7.62891,-8.650936 c 2.64844,-2.293293 4.875,-3.933792 6.67969,-4.921497 1.80468,-0.987705 3.76757,-1.742676 5.88867,-2.26491 2.12109,-0.522236 4.50586,-0.783352 7.1543,-0.783352 3.32812,0 6.29882,0.567646 8.9121,1.70294 2.61329,1.135293 4.64063,2.753087 6.08204,4.853379 1.4414,2.100292 2.16211,4.456028 2.16211,7.067199 0,1.952706 -0.25196,3.757824 -0.75586,5.415352 -0.50391,1.657528 -1.28321,3.286675 -2.33789,4.887436 -1.05469,1.600765 -2.45508,3.286675 -4.20118,5.057732 -1.74609,1.771057 -5.46679,5.131527 -11.16211,10.081402 v 0.340591 h 19.44141 z"
   id="path172" />
	</g>
</g>
</svg>
